<svg width="50" height="50" viewBox="0 0 50 50" fill="none" xmlns="http://www.w3.org/2000/svg">
<circle cx="25" cy="25" r="24" stroke="#303150" stroke-width="2"/>
<path d="M38.0909 31.0182C38.058 30.6761 37.7538 30.4258 37.4119 30.4583C37.0698 30.4912 36.8191 30.7952 36.852 31.1374C36.9706 32.3704 36.8365 33.4589 36.4532 34.3726C36.3204 34.6896 36.4695 35.0543 36.7864 35.1873C36.8651 35.2202 36.9467 35.2359 37.0269 35.2359C37.2701 35.2359 37.5011 35.0924 37.601 34.854C38.0647 33.7487 38.2296 32.4581 38.0909 31.0182Z" fill="#303150"/>
<path d="M37.575 28.5075C37.5239 28.3418 37.4688 28.1728 37.411 28.0055C37.2986 27.6806 36.9443 27.5082 36.6194 27.6205C36.2946 27.7327 36.1222 28.0871 36.2344 28.4119C36.2877 28.5661 36.3384 28.7214 36.3853 28.8737C36.4677 29.1411 36.714 29.3131 36.98 29.3131C37.0406 29.3131 37.1023 29.3041 37.1633 29.2854C37.4918 29.1843 37.6762 28.836 37.575 28.5075Z" fill="#303150"/>
<path d="M34.6074 26.837C34.4609 26.6906 34.251 26.6264 34.0477 26.6663C33.9347 26.6884 31.2586 27.2311 29.2449 29.2448C27.2312 31.2586 26.6885 33.9347 26.6664 34.0476C26.6266 34.2509 26.6906 34.4607 26.8371 34.6072C26.9549 34.7251 27.1137 34.7896 27.2772 34.7896C27.3169 34.7896 27.3569 34.7858 27.3968 34.7779C27.5098 34.7558 30.1859 34.2131 32.1995 32.1994C34.2133 30.1857 34.7559 27.5095 34.778 27.3967C34.8178 27.1933 34.7538 26.9835 34.6074 26.837ZM31.3193 31.3193C30.3045 32.3341 29.0638 32.9249 28.2024 33.2419C28.5194 32.3803 29.1103 31.1397 30.125 30.125C31.1398 29.1102 32.3804 28.5194 33.2419 28.2024C32.9249 29.064 32.334 30.3046 31.3193 31.3193Z" fill="#303150"/>
<path d="M23.1848 15.4144C23.0383 15.2679 22.8284 15.204 22.6251 15.2438C22.5121 15.2659 19.8361 15.8086 17.8224 17.8223C15.8087 19.836 15.266 22.5121 15.2439 22.625C15.204 22.8283 15.2681 23.0382 15.4145 23.1847C15.5323 23.3026 15.6912 23.367 15.8546 23.367C15.8943 23.367 15.9344 23.3632 15.9742 23.3554C16.0872 23.3333 18.7633 22.7905 20.777 20.7769C22.7906 18.7631 23.3334 16.087 23.3555 15.9741C23.3953 15.7708 23.3314 15.5609 23.1848 15.4144ZM19.8967 19.8967C18.882 20.9115 17.6413 21.5024 16.7798 21.8193C17.0969 20.9577 17.6877 19.7171 18.7025 18.7025C19.7172 17.6877 20.9579 17.0968 21.8193 16.7799C21.5024 17.6415 20.9115 18.882 19.8967 19.8967Z" fill="#303150"/>
<path d="M30.5575 19.4435C30.411 19.297 30.2014 19.2328 29.9978 19.2728C29.8337 19.3049 25.9464 20.0932 23.0199 23.0198C20.0933 25.9464 19.305 29.8337 19.2729 29.9978C19.233 30.2011 19.2971 30.4109 19.4435 30.5575C19.5613 30.6753 19.7202 30.7398 19.8836 30.7398C19.9234 30.7398 19.9634 30.736 20.0032 30.7281C20.1672 30.696 24.0546 29.9076 26.9811 26.9811C29.9077 24.0545 30.696 20.1672 30.7281 20.0031C30.768 19.7998 30.704 19.5899 30.5575 19.4435ZM26.1011 26.101C24.3049 27.8972 22.0497 28.8195 20.7712 29.2299C21.1816 27.951 22.1041 25.696 23.9001 23.9C25.697 22.1031 27.9534 21.1805 29.2316 20.7705C28.8235 22.047 27.9035 24.2986 26.1011 26.101Z" fill="#303150"/>
<path d="M40.1325 28.5584C39.1136 24.5708 36.6122 20.4344 33.089 16.9112C29.5656 13.3879 25.4293 10.8865 21.4417 9.86766C17.3393 8.81938 13.8658 9.45628 11.6611 11.661C9.45645 13.8657 8.81955 17.3392 9.86777 21.4416C10.8866 25.4292 13.3881 29.5655 16.9113 33.0888C20.4345 36.612 24.571 39.1134 28.5586 40.1324C29.8488 40.4621 31.0764 40.625 32.2223 40.625C34.7198 40.625 36.8279 39.8503 38.3391 38.3391C40.5437 36.1343 41.1806 32.6609 40.1325 28.5584ZM37.4589 37.4588C36.188 38.7298 34.3836 39.3801 32.218 39.3799C31.1778 39.3799 30.0539 39.2298 28.8665 38.9264C25.0923 37.962 21.159 35.5763 17.7914 32.2087C14.4238 28.841 12.0381 24.9078 11.0736 21.1335C10.1386 17.474 10.6599 14.4225 12.5413 12.5412C13.8122 11.2702 15.6166 10.62 17.7823 10.62C18.8224 10.62 19.9463 10.7702 21.1336 11.0735C24.9079 12.0379 28.8412 14.4237 32.2088 17.7914C35.5764 21.159 37.9622 25.0922 38.9265 28.8666C39.8615 32.526 39.3403 35.5775 37.4589 37.4588Z" fill="#303150"/>
</svg>
