<svg width="50" height="50" viewBox="0 0 50 50" fill="none" xmlns="http://www.w3.org/2000/svg">
<circle cx="25" cy="25" r="24" stroke="#303150" stroke-width="2"/>
<path d="M20.625 19.0625H17.5C16.637 19.0625 15.9375 19.762 15.9375 20.625V30C15.9375 30.863 16.637 31.5625 17.5 31.5625H20.625C21.488 31.5625 22.1875 30.863 22.1875 30V20.625C22.1875 19.762 21.488 19.0625 20.625 19.0625ZM20.625 30H17.5V20.625H20.625V30Z" fill="#303150"/>
<path d="M34.6786 18.0187C34.3823 17.6885 33.9593 17.5 33.5156 17.5C33.0719 17.5 32.6489 17.6885 32.3526 18.0187C32.1854 18.2047 31.9042 18.5255 31.5625 18.9291V15.9375C31.5625 15.5229 31.3979 15.1255 31.1047 14.8328L28.4375 12.1651V9.6875C28.4375 8.82446 27.738 8.125 26.875 8.125H22.1875C21.3245 8.125 20.625 8.82446 20.625 9.6875V12.0615L13.399 17.8422C13.0281 18.139 12.8125 18.588 12.8125 19.0625V37.8125C12.8125 38.6755 13.512 39.375 14.375 39.375H30C30.863 39.375 31.5625 38.6755 31.5625 37.8125V35.9562C32.1891 36.1281 32.8354 36.25 33.5156 36.25C37.6083 36.25 40.9375 32.9203 40.9375 28.8281C40.9375 25.1786 35.7239 19.1838 34.6786 18.0187ZM22.1875 9.6875H26.875V11.25H22.1875V9.6875ZM30 37.8125H14.375V19.0625L22.1875 12.8125H26.875L30 15.9375V20.8755C28.1969 23.2474 26.0937 26.5094 26.0937 28.8281C26.0937 31.6422 27.6859 34.0656 30 35.3234V37.8125ZM33.5156 34.6875C30.2797 34.6875 27.6562 32.0641 27.6562 28.8281C27.6562 25.5922 33.5156 19.0625 33.5156 19.0625C33.5156 19.0625 39.375 25.5922 39.375 28.8281C39.375 32.0641 36.7516 34.6875 33.5156 34.6875Z" fill="#303150"/>
</svg>
