<svg width="50" height="50" viewBox="0 0 50 50" fill="none" xmlns="http://www.w3.org/2000/svg">
<circle cx="25" cy="25" r="24" stroke="#303150" stroke-width="2"/>
<path d="M17.8398 31.3853C17.5967 31.1422 17.2026 31.1423 16.9594 31.3853L16.6142 31.7305C16.3711 31.9736 16.371 32.3678 16.6142 32.6109C16.7358 32.7325 16.8951 32.7932 17.0544 32.7932C17.2137 32.7932 17.373 32.7324 17.4946 32.6109L17.8398 32.2657C18.0828 32.0226 18.0829 31.6284 17.8398 31.3853Z" fill="#303150"/>
<path d="M20.9902 28.2348C20.7471 27.9917 20.353 27.9917 20.1099 28.2348L18.211 30.1338C17.9678 30.3769 17.9678 30.771 18.211 31.0142C18.3325 31.1358 18.4918 31.1965 18.6511 31.1965C18.8104 31.1965 18.9698 31.1358 19.0913 31.0142L20.9902 29.1153C21.2333 28.8722 21.2333 28.478 20.9902 28.2348Z" fill="#303150"/>
<path d="M38.2103 11.7919C36.6517 10.2333 34.5795 9.375 32.3754 9.375C30.1712 9.375 28.0991 10.2333 26.5405 11.7919C24.9047 13.4277 22.96 16.7042 21.8114 19.7598C21.1511 21.5164 20.7819 23.0894 20.714 24.4354C20.7018 24.6769 20.7007 24.9089 20.7083 25.1335L14.8578 30.9841C14.2779 30.5803 13.5898 30.3629 12.8683 30.3629C11.9358 30.3629 11.0591 30.726 10.3997 31.3854C9.7403 32.0447 9.37708 32.9214 9.37708 33.8539C9.37708 34.7864 9.74017 35.6631 10.3996 36.3225C11.0076 36.9305 11.8188 37.2872 12.6643 37.3378C12.7149 38.1832 13.0717 38.9945 13.6796 39.6025C14.339 40.2619 15.2157 40.625 16.1482 40.625C17.0806 40.625 17.9574 40.2619 18.6168 39.6025C19.2762 38.9431 19.6393 38.0664 19.6393 37.1339C19.6393 36.4124 19.4218 35.7243 19.0181 35.1444L24.8675 29.295C24.9538 29.298 25.0413 29.2994 25.1301 29.2994C25.2725 29.2994 25.418 29.2957 25.5668 29.2881C26.9128 29.2202 28.4859 28.851 30.2424 28.1907C33.2979 27.0421 36.5745 25.0975 38.2103 23.4616C41.4276 20.2443 41.4276 15.0092 38.2103 11.7919ZM17.7363 34.6653C17.6196 34.782 17.554 34.9404 17.554 35.1055C17.554 35.2706 17.6196 35.429 17.7363 35.5457C18.1606 35.9699 18.3942 36.5339 18.3942 37.1339C18.3942 37.7339 18.1606 38.2979 17.7363 38.7221C17.3121 39.1464 16.7481 39.38 16.1482 39.38C15.5483 39.38 14.9843 39.1464 14.56 38.7221C14.0544 38.2166 13.819 37.4919 13.9301 36.7836C13.9609 36.587 13.8959 36.3876 13.7552 36.2469C13.6146 36.1063 13.4151 36.0414 13.2186 36.0721C12.5103 36.183 11.7855 35.9477 11.28 35.4421C10.8558 35.0179 10.6221 34.4539 10.6221 33.8539C10.6221 33.254 10.8558 32.69 11.28 32.2657C11.7042 31.8415 12.2682 31.6078 12.8682 31.6078C13.4682 31.6078 14.0322 31.8415 14.4564 32.2657C14.5731 32.3824 14.7315 32.4481 14.8966 32.4481C15.0617 32.4481 15.22 32.3824 15.3368 32.2657L20.9487 26.6538C21.137 27.2563 21.4327 27.7622 21.8363 28.1658C22.2399 28.5693 22.7459 28.8649 23.3485 29.0532L17.7363 34.6653ZM37.3298 22.5812C35.8302 24.0808 32.6652 25.9498 29.8042 27.0253C26.4105 28.301 23.8271 28.3959 22.7167 27.2853C21.6062 26.1749 21.701 23.5916 22.9767 20.1978C24.0522 17.3368 25.9212 14.1718 27.4208 12.6722C28.7442 11.3489 30.5037 10.62 32.3753 10.62C34.2468 10.62 36.0064 11.3488 37.3298 12.6722C40.0618 15.4042 40.0618 19.8493 37.3298 22.5812Z" fill="#303150"/>
</svg>
