<svg width="50" height="50" viewBox="0 0 50 50" fill="none" xmlns="http://www.w3.org/2000/svg">
<circle cx="25" cy="25" r="24" stroke="#303150" stroke-width="2"/>
<path d="M17.3062 23.8541C17.4017 24.8215 17.6422 25.7958 17.971 26.6539C19.1085 29.6222 21.2135 31.4481 23.602 31.5381C23.6981 31.5418 23.7986 31.5443 23.9028 31.5443C24.3379 31.5443 24.834 31.5014 25.3122 31.3215C25.905 31.5444 26.5254 31.557 27.0227 31.5381C29.4109 31.4481 31.5158 29.6224 32.6534 26.6543C33.5625 24.2822 33.796 21.0226 32.1602 19.4715C30.8241 18.2049 28.7052 17.9393 26.8876 18.8113C26.6443 18.928 26.4328 19.0211 26.2454 19.093C26.4587 18.3527 26.7827 17.6533 27.1996 17.0155C28.841 17.623 30.941 17.2299 32.6365 15.9485C34.5508 14.501 35.4975 12.2617 34.9923 10.3762C34.9431 10.1927 34.8224 10.0362 34.6567 9.94072C32.9535 8.96076 30.5229 9.2746 28.6087 10.7219C26.8068 12.0838 25.8622 14.1473 26.1781 15.9574C25.8449 16.4283 25.5553 16.9307 25.3152 17.4575C24.7298 16.163 23.8417 15.0102 22.7046 14.0929C22.395 13.8434 21.9398 13.8892 21.6875 14.196C21.4354 14.5026 21.4819 14.9535 21.7915 15.2033C23.05 16.2185 23.947 17.5746 24.3807 19.0934C24.1929 19.0215 23.9808 18.9282 23.7371 18.8113C21.9195 17.9396 19.8005 18.2047 18.4644 19.4714C17.4469 20.4362 17.1526 22.062 17.2943 23.7243C17.2944 23.7676 17.2984 23.8111 17.3062 23.8541ZM29.4859 11.8602C30.8114 10.8582 32.4753 10.5435 33.6551 11.0425C33.8299 12.301 33.0845 13.8081 31.7592 14.8102C30.6414 15.6552 29.2825 16.0114 28.1768 15.803C29.0489 14.9169 30.1355 14.2326 31.3586 13.8411C31.7385 13.7196 31.947 13.3159 31.8242 12.9396C31.7015 12.5634 31.2939 12.3566 30.914 12.4784C29.7252 12.859 28.6456 13.4726 27.7254 14.2606C28.0014 13.385 28.6197 12.5149 29.4859 11.8602ZM21.3591 29.1743C20.5315 28.4906 19.8246 27.4555 19.3227 26.1458C19.062 25.4656 18.8853 24.7663 18.7913 24.0963C19.1887 23.8973 19.6278 23.7935 20.0812 23.7935C21.6616 23.7935 22.9475 25.0669 22.9475 26.6322C22.9475 27.7192 22.3223 28.6995 21.3591 29.1743ZM19.4644 20.506C20.2149 19.7943 21.6324 19.393 23.1071 20.1002C23.9151 20.4876 24.6031 20.741 25.3123 20.7187C26.0248 20.7407 26.7098 20.4876 27.5178 20.1001C28.9923 19.393 30.4098 19.7942 31.1605 20.5059C32.1076 21.404 32.1697 23.8815 31.3018 26.1461C30.3771 28.559 28.7569 30.0396 26.9678 30.1072C26.3598 30.1301 25.9561 30.0686 25.6603 29.9077C25.4437 29.7898 25.1811 29.7898 24.9643 29.9077C24.6685 30.0685 24.2648 30.1299 23.6573 30.1072C23.3611 30.096 23.0699 30.0462 22.7854 29.9598C23.7819 29.1645 24.3934 27.9505 24.3934 26.6322C24.3934 24.2772 22.4591 22.3614 20.0813 22.3614C19.6143 22.3614 19.1572 22.4347 18.7233 22.5772C18.7795 21.6685 19.028 20.9196 19.4644 20.506ZM40.3864 28.421C40.2645 28.1768 40.0133 28.0221 39.7383 28.0221H35.0387C34.6394 28.0221 34.3158 28.3427 34.3158 28.7381C34.3158 29.1336 34.6394 29.4541 35.0387 29.4541H39.176C39.1161 30.0544 38.108 31.0111 35.4182 31.8218C32.7289 32.6323 29.1399 33.0787 25.3123 33.0787C21.4848 33.0787 17.8958 32.6323 15.2065 31.8218C12.5168 31.0112 11.5086 30.0544 11.4487 29.4541H15.586C15.9853 29.4541 16.3089 29.1336 16.3089 28.7381C16.3089 28.3427 15.9853 28.0221 15.586 28.0221H10.8865C10.6117 28.0221 10.3607 28.1764 10.2387 28.4202C10.0803 28.7369 10 29.0657 10 29.3976C10 30.9362 11.6549 32.2481 14.7856 33.1917C17.4355 33.9904 20.8934 34.452 24.5893 34.5054V35.8817H18.0177C16.2783 35.8817 14.8632 37.2832 14.8632 39.006V39.909C14.8632 40.3045 15.1868 40.625 15.5861 40.625H35.0389C35.4382 40.625 35.7618 40.3045 35.7618 39.909V39.0061C35.7618 37.2833 34.3467 35.8818 32.6073 35.8818H26.0353V34.5055C29.7314 34.4521 33.1894 33.9904 35.8393 33.1918C38.9702 32.2482 40.625 30.9362 40.625 29.3976C40.6248 29.0666 40.5446 28.7381 40.3864 28.421ZM32.6071 37.3137C33.5493 37.3137 34.3158 38.0729 34.3158 39.006V39.193H16.3089V39.006C16.3089 38.0729 17.0754 37.3137 18.0176 37.3137H32.6071Z" fill="#303150"/>
</svg>
