<svg width="50" height="50" viewBox="0 0 50 50" fill="none" xmlns="http://www.w3.org/2000/svg">
<g clip-path="url(#clip0_37_235)">
<path d="M43.3097 44.7135H38.4238C40.1271 43.7132 41.7149 42.4899 43.1486 41.0563C47.567 36.638 50 30.7634 50 24.5146C50 23.6326 49.285 22.9174 48.4028 22.9174H30.8256L26.2996 15.0457L32.3714 4.48538C32.811 3.72063 32.5476 2.74446 31.7828 2.30481C31.0183 1.86496 30.0418 2.12864 29.6021 2.89339L24.4572 11.8416L19.3124 2.89339C18.8727 2.12864 17.8966 1.86516 17.1316 2.30481C16.3669 2.74446 16.1034 3.72063 16.543 4.48538L22.6147 15.0457L18.0887 22.9174H1.59717C0.715042 22.9174 0 23.6326 0 24.5146C0 33.1177 4.66896 40.6499 11.6051 44.7137H6.69202C5.80989 44.7137 5.09484 45.4289 5.09484 46.3108C5.09484 47.1928 5.80989 47.908 6.69202 47.908H23.3811C23.3853 47.908 23.3892 47.9082 23.3934 47.9082H26.6068C26.6111 47.9082 26.6153 47.908 26.6196 47.908H43.3097C44.1919 47.908 44.9069 47.1928 44.9069 46.3108C44.9069 45.4289 44.1919 44.7135 43.3097 44.7135ZM24.4574 18.25L27.1409 22.9175H21.7739L24.4574 18.25ZM26.6071 44.7137C26.6061 44.7137 26.6051 44.7139 26.6041 44.7139H23.3969C23.3958 44.7139 23.3948 44.7137 23.3938 44.7137H23.3809C14.6611 44.7081 7.21741 39.1482 4.40012 31.3887H14.691C15.5731 31.3887 16.2882 30.6735 16.2882 29.7915C16.2882 28.9096 15.5731 28.1944 14.691 28.1944H3.53156C3.40519 27.5113 3.31232 26.8168 3.25685 26.1116H19.0069C19.0085 26.1116 19.0101 26.1119 19.0119 26.1119C19.0135 26.1119 19.0151 26.1116 19.0167 26.1116H29.8986C29.9001 26.1116 29.9018 26.1119 29.9033 26.1119C29.9049 26.1119 29.9066 26.1116 29.9083 26.1116H46.7443C46.3719 30.9053 44.3262 35.3614 40.8902 38.7976C37.0782 42.6097 32.0107 44.7103 26.62 44.7136H26.6071V44.7137Z" fill="white"/>
<path d="M20.0793 28.1943H19.4293C18.5472 28.1943 17.8322 28.9096 17.8322 29.7915C17.8322 30.6734 18.5472 31.3887 19.4293 31.3887H20.0793C20.9615 31.3887 21.6765 30.6734 21.6765 29.7915C21.6765 28.9096 20.9615 28.1943 20.0793 28.1943Z" fill="white"/>
</g>
<defs>
<clipPath id="clip0_37_235">
<rect width="50" height="50" fill="white"/>
</clipPath>
</defs>
</svg>
