<svg width="37" height="37" viewBox="0 0 37 37" fill="none" xmlns="http://www.w3.org/2000/svg">
<path d="M18.5 18.5C20.9533 18.5 23.306 17.5255 25.0407 15.7907C26.7754 14.056 27.75 11.7033 27.75 9.25C27.75 6.79675 26.7754 4.44397 25.0407 2.70926C23.306 0.974551 20.9533 0 18.5 0C16.0467 0 13.694 0.974551 11.9593 2.70926C10.2246 4.44397 9.25 6.79675 9.25 9.25C9.25 11.7033 10.2246 14.056 11.9593 15.7907C13.694 17.5255 16.0467 18.5 18.5 18.5ZM24.6667 9.25C24.6667 10.8855 24.017 12.454 22.8605 13.6105C21.704 14.767 20.1355 15.4167 18.5 15.4167C16.8645 15.4167 15.296 14.767 14.1395 13.6105C12.983 12.454 12.3333 10.8855 12.3333 9.25C12.3333 7.6145 12.983 6.04598 14.1395 4.88951C15.296 3.73303 16.8645 3.08333 18.5 3.08333C20.1355 3.08333 21.704 3.73303 22.8605 4.88951C24.017 6.04598 24.6667 7.6145 24.6667 9.25ZM37 33.9167C37 37 33.9167 37 33.9167 37H3.08333C3.08333 37 0 37 0 33.9167C0 30.8333 3.08333 21.5833 18.5 21.5833C33.9167 21.5833 37 30.8333 37 33.9167ZM33.9167 33.9043C33.9136 33.1458 33.4418 30.8642 31.3513 28.7737C29.341 26.7633 25.5577 24.6667 18.5 24.6667C11.4392 24.6667 7.659 26.7633 5.64867 28.7737C3.55817 30.8642 3.0895 33.1458 3.08333 33.9043H33.9167Z" fill="#F4F4F5"/>
</svg>
